# xmcd
#
# Track frame offsets:
#	150
#	21257
#	37568
#	53608
#	76435
#	93968
#	112861
#	130721
#	149227
#	166841
#	181651
#	198839
#	220575
#	238274
#	258036
#
# Disc length: 3614 seconds
#
# Revision: 19
# Processed by: cddbd v1.5.2PL0 Copyright (c) Steve Scherf et al.
# Submitted via: EasyCDDAExtractor 16.1.0.1
#
DISCID=b60e1c0f
DTITLE=Various Artist - Love Ballads CD 1
DYEAR=2013
DGENRE=Ballad
TTITLE0=Whitesnake - Is This Love
TTITLE1=Manfred Mann - I Put A Spell On You
TTITLE2=Marillion - Kayleigh
TTITLE3=Deep Purple - Lalena
TTITLE4=Talk Talk - It's My Life
TTITLE5=The Hollies - The Air That I Breathe
TTITLE6=Booby Goldsboro - Honey
TTITLE7=Roxy Music - Love Is The Drug
TTITLE8=Al Steward - Midnight Rocks
TTITLE9=Ricer City People - Carry The Blame
TTITLE10=Danny Wilson - Mary's Prayer
TTITLE11=Climie Fisher - Love Like A River
TTITLE12=Boy George - Everything I Own
TTITLE13=Killing joke - Love Like Blood
TTITLE14=Jeff Beck - Love Is Blue (L' Amour Est Bleu)
EXTD=
EXTT0=
EXTT1=
EXTT2=
EXTT3=
EXTT4=
EXTT5=
EXTT6=
EXTT7=
EXTT8=
EXTT9=
EXTT10=
EXTT11=
EXTT12=
EXTT13=
EXTT14=
PLAYORDER=
